<svg width="288" height="61" viewBox="0 0 288 61" fill="none" xmlns="http://www.w3.org/2000/svg">
<g clip-path="url(#clip0_2_6)">
<path d="M17.4876 0.436768H30.9529V12.1332H16.6134C14.0252 12.1332 12.0627 13.0656 10.7258 14.9305C8.90516 16.7982 7.51192 20.4029 6.54604 25.7445C6.35077 27.2767 6.24346 28.8469 6.22609 30.4257C6.22609 34.9613 7.09358 39.2263 8.82856 43.2207C9.96417 45.365 11.0307 46.7842 12.0282 47.4785C13.1217 48.4461 14.6231 48.93 16.5323 48.93H30.9529V60.6221H17.2083C13.6947 60.6221 11.0923 59.7866 9.40087 58.1159C5.61998 54.8804 2.9116 49.586 1.27577 42.2325C0.477288 38.5215 0.0717842 34.5319 0.0838173 30.5051C0.0838173 21.5457 1.8969 13.898 5.52308 7.56229C7.89647 4.03556 10.043 1.95305 11.9628 1.31477C12.9452 0.732377 14.7868 0.439709 17.4876 0.436768ZM14.8852 24.743H30.9529V36.3114H14.8852V24.743Z" fill="white"/>
<path d="M51.0674 28.3079V37.0174H35.4753V28.3079H51.0674Z" fill="white"/>
<path d="M52.3765 0.480865H69.4829C75.6808 0.480865 79.9822 5.7842 82.3871 16.3909C82.9773 19.4312 83.2737 22.6598 83.2613 25.9121C83.2613 32.9716 81.8538 39.1484 79.0388 44.443C77.3038 47.449 75.1775 49.4815 72.66 50.5404C71.6853 50.8093 70.7016 50.9348 69.7172 50.9155L58.5413 51.1671V60.6044H52.3336V39.2763H69.2328C71.438 39.2763 73.0521 38.4689 74.075 36.8542C75.3834 35.2128 76.3222 32.5655 76.8916 28.9123C76.9903 28.0753 77.0469 27.2209 77.0605 26.3622V25.1048C77.0605 21.9575 76.3711 18.8955 74.992 15.9188C73.556 13.4451 71.9637 12.2067 70.2153 12.2038H52.3765V0.480865Z" fill="white"/>
<path d="M86.4564 0.480865H92.6414V28.9212C92.6414 36.8835 94.1984 42.6737 97.3124 46.2916C98.6778 48.0564 100.491 48.9389 102.752 48.9389H117.382V60.6309H102.961C99.0556 60.6309 95.9341 59.0292 93.5968 55.8261C92.9463 55.1789 91.9685 53.6156 90.6631 51.1361C88.9717 47.4065 87.8271 43.6487 87.2292 39.8632C86.7185 36.9953 86.4623 32.8877 86.4609 27.5403L86.4564 0.480865Z" fill="white"/>
<path d="M137.305 0.397064H151.5V60.6177H145.342V12.1332L139.84 12.1729H138.517C135.445 12.1729 133.738 12.4244 133.397 12.9274C131.537 13.9328 129.899 16.1212 128.743 19.1484C127.378 22.9722 126.695 26.7725 126.695 30.5493C126.695 35.226 127.618 39.5278 129.469 43.4546C130.706 45.7667 131.773 47.1577 132.667 47.6285C133.569 48.5109 135.111 48.9521 137.295 48.9521H141.577V60.6044H136.449C132.638 60.6044 129.417 58.641 126.786 54.7142C124.882 51.7729 123.61 49.1007 122.97 46.6975C121.376 41.7441 120.58 36.6778 120.581 31.4978V29.7331C120.581 22.4972 121.967 15.857 124.74 9.81245C126.417 6.62988 127.789 4.61943 128.855 3.78114C129.867 2.75898 130.933 1.95991 132.034 1.39861C133.242 0.730913 134.999 0.397064 137.305 0.397064Z" fill="white"/>
<path d="M167.14 60.6176V50.7609C164.663 49.4638 162.347 47.1892 160.335 44.0766C158.644 41.0999 157.541 38.6219 157.03 36.6424C156.318 34.405 155.766 31.9886 155.387 29.4595C154.936 26.6769 154.711 22.8898 154.711 18.0983V0.480865H160.896V18.6454C160.896 23.9399 161.422 28.0196 162.474 30.8845C162.685 31.8023 163.367 33.264 164.519 35.2702C166.111 37.8348 168.109 39.2369 170.171 39.2369C172.233 39.2369 174.231 37.8348 175.824 35.2702C176.976 33.2612 177.659 31.7993 177.872 30.8845C178.924 28.0166 179.448 23.9371 179.448 18.6454V0.480865H185.634V18.1027C185.634 22.8943 185.409 26.6813 184.958 29.4639C184.593 32.0026 184.04 34.4227 183.316 36.6468C182.804 38.6233 181.71 41.1016 180.032 44.0811C178.011 47.186 175.689 49.4582 173.207 50.7609V60.6176H167.14Z" fill="white"/>
<path d="M206.231 0.436768H219.689V12.1332H205.352C202.766 12.1332 200.803 13.0656 199.467 14.9305C197.646 16.7982 196.253 20.4029 195.287 25.7445C195.092 27.2767 194.985 28.8469 194.967 30.4257C194.967 34.9613 195.833 39.2263 197.567 43.2207C198.704 45.365 199.771 46.7842 200.767 47.4785C201.862 48.4521 203.364 48.9403 205.273 48.9433H219.693V60.6353H205.949C202.439 60.6353 199.836 59.7999 198.144 58.1291C194.362 54.8937 191.653 49.5991 190.019 42.2458C189.218 38.533 188.812 34.5397 188.824 30.5096C188.824 21.5502 190.637 13.9025 194.262 7.56669C196.64 4.03702 198.788 1.95305 200.708 1.31477C201.69 0.732378 203.53 0.439709 206.231 0.436768ZM203.63 24.743H219.689V36.3114H203.63V24.743Z" fill="white"/>
<path d="M222.951 0.436768H242.701C246.192 0.436768 248.922 2.48251 250.892 6.57398C251.654 7.88149 252.278 9.47077 252.726 11.2508C253.457 13.9752 253.851 16.9977 253.877 20.075V21.7868C253.877 26.199 252.901 30.5008 250.948 34.6923C249.697 37.0453 248.56 38.5484 247.537 39.2014C250.124 44.6076 251.416 51.7494 251.416 60.6265H245.212V59.7087C245.212 53.1377 243.854 47.9168 241.138 44.0458C239.587 41.9015 237.56 40.8294 235.054 40.8294H222.951V29.2124H243.084C245.288 29.2124 246.781 27.0828 247.564 22.8236C247.65 21.9412 247.706 21.2354 247.735 20.6529C247.735 18.2851 247.23 16.1409 246.221 14.2201C245.442 12.9467 244.462 12.2392 243.448 12.2171C243.448 12.1067 243.149 12.0494 242.546 12.0494H222.943L222.951 0.436768Z" fill="white"/>
<path d="M266.844 0.480874H287.552V12.8347H266.65C265.018 12.8347 264.016 14.4069 263.645 17.5512V18.4336C263.645 20.2985 264.179 21.8575 265.244 23.1105C265.57 23.361 265.917 23.4882 266.267 23.4854H276.778C279.483 23.4854 281.317 24.0282 282.281 25.1136C284.672 27.2049 286.324 30.3933 287.238 34.679C287.734 37.1407 287.994 39.759 288.007 42.4045C288.007 48.4168 286.571 53.4833 283.699 57.6042C282.787 58.7115 281.794 59.5431 280.756 60.0704C279.931 60.4324 278.559 60.6132 276.64 60.6132H257.104L257.082 48.2594H278.068C279.831 48.2594 280.958 46.5608 281.447 43.1633L281.49 42.0384C281.49 39.641 280.89 37.8027 279.688 36.5232C279.176 36.0436 278.612 35.815 278.045 35.857H266.252C263.167 35.857 260.593 33.2097 258.533 27.9153C257.672 25.2507 257.204 22.1726 257.181 19.0205V17.388C257.181 11.2111 258.716 6.32542 261.788 2.73103C263.054 1.22799 264.74 0.477933 266.844 0.480874Z" fill="white"/>
</g>
<defs>
<clipPath id="clip0_2_6">
<rect width="287.916" height="60.2206" fill="white" transform="translate(0.0839233 0.397064)"/>
</clipPath>
</defs>
</svg>
